<?xml version="1.0" encoding="utf-8"?>
<!-- Generator: Adobe Illustrator 24.1.1, SVG Export Plug-In . SVG Version: 6.00 Build 0)  -->
<svg version="1.1" id="Calque_1" xmlns:svgjs="http://svgjs.com/svgjs"
	 xmlns="http://www.w3.org/2000/svg" xmlns:xlink="http://www.w3.org/1999/xlink" x="0px" y="0px" viewBox="0 0 512 512"
	 style="enable-background:new 0 0 512 512;" xml:space="preserve">
<style type="text/css">
	.st0{fill:#FE5F49;}
	.st1{fill:#FFFFFF;stroke:#FFFFFF;stroke-width:25;stroke-miterlimit:10;}
</style>
<g>
	<path class="st0" d="M475.1,0H36.9C16.5,0,0,16.5,0,36.9v438.1C0,495.5,16.5,512,36.9,512h438.1c20.4,0,36.9-16.5,36.9-36.9V36.9
		C512,16.5,495.5,0,475.1,0z"/>
</g>
<g>
	<path class="st1" d="M360.5,396.2h-209c-16.4,0-29.7-13.3-29.7-29.7V157.4c0-16.4,13.3-29.7,29.7-29.7h209
		c16.4,0,29.7,13.3,29.7,29.7v209C390.3,382.9,377,396.2,360.5,396.2z M151.5,144.2c-7.3,0-13.2,5.9-13.2,13.2v209
		c0,7.3,5.9,13.2,13.2,13.2h209c7.3,0,13.2-5.9,13.2-13.2v-209c0-7.3-5.9-13.2-13.2-13.2H151.5z"/>
	<path class="st1" d="M315.9,172.2c-3.5,0-6.3-2.8-6.3-6.3v-43.8c0-3.5,2.8-6.3,6.3-6.3s6.3,2.8,6.3,6.3v43.7
		C322.3,169.3,319.5,172.2,315.9,172.2L315.9,172.2z M195.4,172.2c-3.5,0-6.3-2.8-6.3-6.3v-43.8c0-3.5,2.8-6.3,6.3-6.3
		c3.5,0,6.3,2.8,6.3,6.3v43.7C201.8,169.3,198.9,172.2,195.4,172.2L195.4,172.2z M263.6,313.5c-26.2,0-47.4-21.3-47.4-47.4
		s21.3-47.4,47.4-47.4c11.8,0,23.1,4.4,31.9,12.3c1.1,0.9,1.2,2.6,0.2,3.7c-0.9,1.1-2.6,1.2-3.7,0.2c-7.8-7.1-17.8-11-28.4-11
		c-23.3,0-42.2,18.9-42.2,42.2c0,23.3,18.9,42.2,42.2,42.2c10.5,0,20.6-3.9,28.4-11c1.1-0.9,2.7-0.9,3.7,0.2
		c0.9,1.1,0.9,2.7-0.2,3.7C286.7,309.1,275.4,313.5,263.6,313.5L263.6,313.5z"/>
</g>
</svg>
