<svg xmlns="http://www.w3.org/2000/svg" viewBox="0 0 674.94 98.89"><defs><style>.cls-1{fill:#2d3bbe;}.cls-2{fill:#fe5f49;}</style></defs><title>logoprodig2</title><g id="Calque_2" data-name="Calque 2"><g id="Calque_1-2" data-name="Calque 1"><path class="cls-1" d="M168.62,0a28.49,28.49,0,0,1,11.51,2.35A29.81,29.81,0,0,1,195.82,18a28,28,0,0,1,2.35,11.44V35a28.49,28.49,0,0,1-2.35,11.51,29.77,29.77,0,0,1-6.32,9.37,28.93,28.93,0,0,1-9.37,6.25,29.3,29.3,0,0,1-11.51,2.28H140.07V98.59H120.6V0Zm10.23,29.41a9.67,9.67,0,0,0-3-7.1,9.88,9.88,0,0,0-7.25-3H140.07V45h28.55a9.87,9.87,0,0,0,7.25-3,9.68,9.68,0,0,0,3-7.1Z"/><path class="cls-1" d="M265.08,0a28.11,28.11,0,0,1,11.44,2.34,30.41,30.41,0,0,1,9.3,6.33A30.08,30.08,0,0,1,292.15,18a28.65,28.65,0,0,1,2.34,11.51V35a28.5,28.5,0,0,1-1.63,9.59,30.8,30.8,0,0,1-4.48,8.38,29.67,29.67,0,0,1-6.82,6.54,27.79,27.79,0,0,1-8.8,4l21.73,35.09H272L250.74,64.5H236.39V98.59H217.07V0h48Zm10.09,29.55a9.83,9.83,0,0,0-3-7.24,9.71,9.71,0,0,0-7.11-3H236.39V45.18h28.69a9.74,9.74,0,0,0,7.11-3,9.89,9.89,0,0,0,3-7.25Z"/><path class="cls-1" d="M364.24,0a48.14,48.14,0,0,1,19.18,3.84A49.5,49.5,0,0,1,409.7,30.12a48.1,48.1,0,0,1,3.84,19.18,48.14,48.14,0,0,1-3.84,19.18A48.66,48.66,0,0,1,399.12,84.1a51.19,51.19,0,0,1-15.7,10.59,49.09,49.09,0,0,1-38.35,0,50,50,0,0,1-26.22-26.21A47.5,47.5,0,0,1,315,49.3a47.46,47.46,0,0,1,3.9-19.18,51.19,51.19,0,0,1,10.59-15.7A48.6,48.6,0,0,1,345.07,3.84,48.05,48.05,0,0,1,364.24,0m0,79.27A29.28,29.28,0,0,0,376,76.92a30,30,0,0,0,9.52-6.4,30.62,30.62,0,0,0,6.4-9.47,29.11,29.11,0,0,0,2.34-11.68,29.63,29.63,0,0,0-2.34-11.75A29.83,29.83,0,0,0,376,21.67a29.45,29.45,0,0,0-11.72-2.35,29,29,0,0,0-11.65,2.35,30,30,0,0,0-15.84,15.95,29.63,29.63,0,0,0-2.34,11.75,29.11,29.11,0,0,0,2.34,11.68,30.62,30.62,0,0,0,6.4,9.47,30.09,30.09,0,0,0,9.44,6.4,28.81,28.81,0,0,0,11.65,2.35"/><path class="cls-1" d="M500.55,10.4A46.32,46.32,0,0,1,517.1,29.94l.08.18a47.47,47.47,0,0,1,3.91,19.18,47.5,47.5,0,0,1-3.91,19.18A51.47,51.47,0,0,1,506.6,84.17,49,49,0,0,1,491,94.76a48.13,48.13,0,0,1-19.18,3.83H433.43V0H472a44.5,44.5,0,0,1,24.73,7.81ZM471.79,79.27a29.16,29.16,0,0,0,11.58-2.34,30.58,30.58,0,0,0,16.05-16,30,30,0,0,0,0-23.23,30.29,30.29,0,0,0-16.05-16,29,29,0,0,0-11.58-2.35h-19v60Z"/><rect class="cls-1" x="540.83" width="19.32" height="98.59"/><path class="cls-1" d="M661,43.61h13.92v55H631.19a48,48,0,0,1-17.55-3.17,50.55,50.55,0,0,1-14.49-8.53,48.68,48.68,0,0,1-10.58-12.6,48,48,0,0,1-5.83-15.47A51.34,51.34,0,0,1,582.39,42a47.11,47.11,0,0,1,5.89-16.83,48.77,48.77,0,0,1,11.44-13.78,48.22,48.22,0,0,1,14.56-8.32A51.07,51.07,0,0,1,630.48.14a49.27,49.27,0,0,1,31.18,10.44A47.64,47.64,0,0,1,673.38,24L656.76,34a28.42,28.42,0,0,0-11.44-11,30.25,30.25,0,0,0-14.56-3.48,31.4,31.4,0,0,0-14.49,3.91,28.34,28.34,0,0,0-11.22,11.29,28.26,28.26,0,0,0-3.91,15.42,30.85,30.85,0,0,0,4.12,14.35,30.5,30.5,0,0,0,10.51,10.65,28.66,28.66,0,0,0,15.42,4.19h24.57V62.94H625.65V43.61Z"/><path class="cls-2" d="M80.65,44.82a4.26,4.26,0,0,1,0,5.5L49.88,86.83l0,0L40.94,97.37a4.23,4.23,0,0,1-3.26,1.52H4.28a4.27,4.27,0,0,1-3.27-7l35-41.58a4.26,4.26,0,0,0,0-5.5L4.39,7.21a4.27,4.27,0,0,1,3.27-7h33.4a4.29,4.29,0,0,1,3.27,1.52Z"/></g></g></svg>