<svg xmlns="http://www.w3.org/2000/svg" viewBox="0 0 678.25 177.84"><defs><style>.cls-1{fill:#2d3bbe;}.cls-2,.cls-3{fill:#fe5f49;}.cls-3{opacity:0.93;}</style></defs><title>logo</title><g id="Calque_2" data-name="Calque 2"><g id="Calque_1-2" data-name="Calque 1"><path class="cls-1" d="M168.62,0a28.49,28.49,0,0,1,11.51,2.35A29.81,29.81,0,0,1,195.82,18a28,28,0,0,1,2.35,11.44V35a28.49,28.49,0,0,1-2.35,11.51,29.77,29.77,0,0,1-6.32,9.37,28.93,28.93,0,0,1-9.37,6.25,29.3,29.3,0,0,1-11.51,2.28H140.07V98.59H120.6V0Zm10.23,29.41a9.67,9.67,0,0,0-3-7.1,9.88,9.88,0,0,0-7.25-3H140.07V45h28.55a9.87,9.87,0,0,0,7.25-3,9.68,9.68,0,0,0,3-7.1Z"/><path class="cls-1" d="M265.08,0a28.11,28.11,0,0,1,11.44,2.34,30.41,30.41,0,0,1,9.3,6.33A30.08,30.08,0,0,1,292.15,18a28.65,28.65,0,0,1,2.34,11.51V35a28.5,28.5,0,0,1-1.63,9.59,30.8,30.8,0,0,1-4.48,8.38,29.67,29.67,0,0,1-6.82,6.54,27.79,27.79,0,0,1-8.8,4l21.73,35.09H272L250.74,64.5H236.39V98.59H217.07V0h48Zm10.09,29.55a9.83,9.83,0,0,0-3-7.24,9.71,9.71,0,0,0-7.11-3H236.39V45.18h28.69a9.74,9.74,0,0,0,7.11-3,9.89,9.89,0,0,0,3-7.25Z"/><path class="cls-1" d="M364.24,0a48.14,48.14,0,0,1,19.18,3.84A49.5,49.5,0,0,1,409.7,30.12a48.1,48.1,0,0,1,3.84,19.18,48.14,48.14,0,0,1-3.84,19.18A48.66,48.66,0,0,1,399.12,84.1a51.19,51.19,0,0,1-15.7,10.59,49.09,49.09,0,0,1-38.35,0,50,50,0,0,1-26.22-26.21A47.5,47.5,0,0,1,315,49.3a47.46,47.46,0,0,1,3.9-19.18,51.19,51.19,0,0,1,10.59-15.7A48.6,48.6,0,0,1,345.07,3.84,48.05,48.05,0,0,1,364.24,0m0,79.27A29.28,29.28,0,0,0,376,76.92a30,30,0,0,0,9.52-6.4,30.62,30.62,0,0,0,6.4-9.47,29.11,29.11,0,0,0,2.34-11.68,29.63,29.63,0,0,0-2.34-11.75A29.83,29.83,0,0,0,376,21.67a29.45,29.45,0,0,0-11.72-2.35,29,29,0,0,0-11.65,2.35,30,30,0,0,0-15.84,15.95,29.63,29.63,0,0,0-2.34,11.75,29.11,29.11,0,0,0,2.34,11.68,30.62,30.62,0,0,0,6.4,9.47,30.09,30.09,0,0,0,9.44,6.4,28.81,28.81,0,0,0,11.65,2.35"/><path class="cls-1" d="M500.55,10.4A46.32,46.32,0,0,1,517.1,29.94l.08.18a47.47,47.47,0,0,1,3.91,19.18,47.5,47.5,0,0,1-3.91,19.18A51.47,51.47,0,0,1,506.6,84.17,49,49,0,0,1,491,94.76a48.13,48.13,0,0,1-19.18,3.83H433.43V0H472a44.5,44.5,0,0,1,24.73,7.81ZM471.79,79.27a29.16,29.16,0,0,0,11.58-2.34,30.58,30.58,0,0,0,16.05-16,30,30,0,0,0,0-23.23,30.29,30.29,0,0,0-16.05-16,29,29,0,0,0-11.58-2.35h-19v60Z"/><rect class="cls-1" x="540.83" width="19.32" height="98.59"/><path class="cls-1" d="M661,43.61h13.92v55H631.19a48,48,0,0,1-17.55-3.17,50.55,50.55,0,0,1-14.49-8.53,48.68,48.68,0,0,1-10.58-12.6,48,48,0,0,1-5.83-15.47A51.34,51.34,0,0,1,582.39,42a47.11,47.11,0,0,1,5.89-16.83,48.77,48.77,0,0,1,11.44-13.78,48.22,48.22,0,0,1,14.56-8.32A51.07,51.07,0,0,1,630.48.14a49.27,49.27,0,0,1,31.18,10.44A47.64,47.64,0,0,1,673.38,24L656.76,34a28.42,28.42,0,0,0-11.44-11,30.25,30.25,0,0,0-14.56-3.48,31.4,31.4,0,0,0-14.49,3.91,28.34,28.34,0,0,0-11.22,11.29,28.26,28.26,0,0,0-3.91,15.42,30.85,30.85,0,0,0,4.12,14.35,30.5,30.5,0,0,0,10.51,10.65,28.66,28.66,0,0,0,15.42,4.19h24.57V62.94H625.65V43.61Z"/><path class="cls-2" d="M80.65,44.82a4.26,4.26,0,0,1,0,5.5L49.88,86.83l0,0L40.94,97.37a4.23,4.23,0,0,1-3.26,1.52H4.28a4.27,4.27,0,0,1-3.27-7l35-41.58a4.26,4.26,0,0,0,0-5.5L4.39,7.21a4.27,4.27,0,0,1,3.27-7h33.4a4.29,4.29,0,0,1,3.27,1.52Z"/><path class="cls-3" d="M218.84,140.4h4.77v29h-4.77Zm2.3,13.19h9.28a3.8,3.8,0,0,0,2-.52,3.69,3.69,0,0,0,1.36-1.51,5,5,0,0,0,.49-2.26,5.09,5.09,0,0,0-.48-2.27,3.59,3.59,0,0,0-1.36-1.52,3.78,3.78,0,0,0-2-.54h-9.28V140.4h9.14a9.54,9.54,0,0,1,4.67,1.11,7.83,7.83,0,0,1,3.13,3.12,10.28,10.28,0,0,1,0,9.33,7.81,7.81,0,0,1-3.13,3.11,9.64,9.64,0,0,1-4.67,1.09h-9.14Z"/><path class="cls-3" d="M245,148.71h5v20.71h-5Zm10.35,4.53a4.65,4.65,0,0,0-1.61-.26A3.62,3.62,0,0,0,251,154a4.19,4.19,0,0,0-1,3l-.42-4.69a7.47,7.47,0,0,1,2.34-2.89,5.42,5.42,0,0,1,3.18-1,7.05,7.05,0,0,1,2.46.4,5.5,5.5,0,0,1,1.91,1.21l-2.91,4A3.15,3.15,0,0,0,255.37,153.24Z"/><path class="cls-3" d="M267.61,168.66a7,7,0,0,1-3-3.08,10.76,10.76,0,0,1-1-4.88v-3.37a10.49,10.49,0,0,1,1-4.82,7,7,0,0,1,3-3.06,11.23,11.23,0,0,1,9.44,0,7,7,0,0,1,3,3.06,10.37,10.37,0,0,1,1,4.82v3.43a10.45,10.45,0,0,1-1,4.84,7,7,0,0,1-3,3.06,11,11,0,0,1-9.44,0Zm7.65-4.66a4.65,4.65,0,0,0,1-3.24v-3.43a4.62,4.62,0,0,0-1-3.22,4.38,4.38,0,0,0-5.87,0,4.61,4.61,0,0,0-1,3.22v3.43a4.7,4.7,0,0,0,1,3.24,4.33,4.33,0,0,0,5.88,0Z"/><path class="cls-3" d="M287,148.71h10.75v4.07H287Zm2.19-2.82a5.84,5.84,0,0,1,1.27-4.12,5.07,5.07,0,0,1,3.9-1.37h3.39v4.37h-2.61a1,1,0,0,0-.88.44,2,2,0,0,0-.3,1.14v23.07h-4.77Z"/><path class="cls-3" d="M308.81,169.72l-2.08-1.08a7.33,7.33,0,0,1-3.17-3.16,10.72,10.72,0,0,1-1.1-5V158.1a12,12,0,0,1,1.05-5.24,7.45,7.45,0,0,1,3.05-3.32,9.73,9.73,0,0,1,4.82-1.13,7.7,7.7,0,0,1,4.54,1.32,8.27,8.27,0,0,1,2.88,3.84,16.6,16.6,0,0,1,1,6.07V161H305.71v-3.49h9.64l0-.22a5.92,5.92,0,0,0-1.21-3.38,3.43,3.43,0,0,0-2.74-1.19,4.21,4.21,0,0,0-3.33,1.34,5.62,5.62,0,0,0-1.18,3.82v2.64a4.44,4.44,0,0,0,4.87,4.89,6.35,6.35,0,0,0,2.33-.45,7.1,7.1,0,0,0,2.06-1.25l3.12,2.92a11.71,11.71,0,0,1-3.55,2.28,10.31,10.31,0,0,1-4,.81Z"/><path class="cls-3" d="M332.87,169.72l-1.68-.35a14.27,14.27,0,0,1-3.14-1,12.07,12.07,0,0,1-2.65-1.65l2.9-3.6a13,13,0,0,0,3.22,1.7,9.51,9.51,0,0,0,3.2.58,7.42,7.42,0,0,0,3.31-.59,1.84,1.84,0,0,0,1.12-1.71,1.48,1.48,0,0,0-.56-1.28,3.13,3.13,0,0,0-1.4-.59c-.57-.11-1.36-.21-2.39-.3l-.54,0-.54-.06h-.31a19.63,19.63,0,0,1-3.58-.67,4.62,4.62,0,0,1-2.34-1.65,5.58,5.58,0,0,1-.95-3.49,6.52,6.52,0,0,1,.95-3.6,5.81,5.81,0,0,1,2.78-2.22,12,12,0,0,1,4.51-.74,16.1,16.1,0,0,1,3.12.3,15.75,15.75,0,0,1,2.9.9,14.06,14.06,0,0,1,2.62,1.47l-2.85,3.47a13.74,13.74,0,0,0-2.94-1.34,10,10,0,0,0-2.89-.45,6.15,6.15,0,0,0-2.85.53,1.74,1.74,0,0,0-1,1.6,1.18,1.18,0,0,0,.54,1,3.42,3.42,0,0,0,1.35.49q.81.12,2.34.27l.31,0,.31,0h.14a.44.44,0,0,1,.16,0,20.09,20.09,0,0,1,3.81.66,5.1,5.1,0,0,1,2.58,1.74,6,6,0,0,1,1.05,3.8,6.62,6.62,0,0,1-1,3.71,6.12,6.12,0,0,1-3,2.27,13.34,13.34,0,0,1-4.82.77Z"/><path class="cls-3" d="M356.19,169.72l-1.68-.35a14.27,14.27,0,0,1-3.14-1,12.07,12.07,0,0,1-2.65-1.65l2.9-3.6a13,13,0,0,0,3.22,1.7,9.51,9.51,0,0,0,3.2.58,7.34,7.34,0,0,0,3.3-.59,1.84,1.84,0,0,0,1.13-1.71,1.48,1.48,0,0,0-.56-1.28,3.13,3.13,0,0,0-1.4-.59c-.57-.11-1.36-.21-2.39-.3l-.54,0-.54-.06h-.32a19.51,19.51,0,0,1-3.57-.67,4.62,4.62,0,0,1-2.34-1.65,5.58,5.58,0,0,1-.95-3.49,6.52,6.52,0,0,1,.95-3.6,5.81,5.81,0,0,1,2.78-2.22,12,12,0,0,1,4.51-.74,15.92,15.92,0,0,1,3.11.3,15.61,15.61,0,0,1,2.91.9,14.06,14.06,0,0,1,2.62,1.47l-2.85,3.47a13.74,13.74,0,0,0-2.94-1.34,10,10,0,0,0-2.89-.45,6.15,6.15,0,0,0-2.85.53,1.74,1.74,0,0,0-1,1.6,1.18,1.18,0,0,0,.54,1,3.42,3.42,0,0,0,1.35.49q.81.12,2.34.27l.31,0,.31,0h.14a.44.44,0,0,1,.16,0,20.09,20.09,0,0,1,3.81.66,5.1,5.1,0,0,1,2.58,1.74,6,6,0,0,1,1.05,3.8,6.62,6.62,0,0,1-1,3.71,6.12,6.12,0,0,1-3,2.27,13.34,13.34,0,0,1-4.82.77Z"/><path class="cls-3" d="M373.6,140.4h4.75v4.77H373.6Zm0,8.31h4.75v20.71H373.6Z"/><path class="cls-3" d="M389.54,168.66a7,7,0,0,1-3-3.08,10.75,10.75,0,0,1-1-4.88v-3.37a10.49,10.49,0,0,1,1-4.82,7,7,0,0,1,3-3.06,11.23,11.23,0,0,1,9.44,0,7,7,0,0,1,3,3.06,10.49,10.49,0,0,1,1,4.82v3.43a10.58,10.58,0,0,1-1,4.84,7,7,0,0,1-3,3.06,11,11,0,0,1-9.44,0ZM397.2,164a4.65,4.65,0,0,0,1-3.24v-3.43a4.62,4.62,0,0,0-1-3.22,4.38,4.38,0,0,0-5.87,0,4.62,4.62,0,0,0-1,3.22v3.43a4.65,4.65,0,0,0,1,3.24,4.33,4.33,0,0,0,5.88,0Z"/><path class="cls-3" d="M410.52,148.71h4.77v20.71h-4.77Zm12.27,8.16a3.93,3.93,0,0,0-1-2.88,3.77,3.77,0,0,0-2.83-1,3.68,3.68,0,0,0-2.71.94,3.63,3.63,0,0,0-1,2.69l-.42-4.29a7.53,7.53,0,0,1,2.36-2.92,5.79,5.79,0,0,1,3.37-1,6.3,6.3,0,0,1,5.14,2.2,9.57,9.57,0,0,1,1.82,6.24v12.57h-4.77Z"/><path class="cls-3" d="M435.47,148.71h4.78v20.71h-4.78Zm12.28,8.16a3.93,3.93,0,0,0-1-2.88,3.78,3.78,0,0,0-2.83-1,3.72,3.72,0,0,0-2.72.94,3.62,3.62,0,0,0-.95,2.69l-.42-4.29a7.44,7.44,0,0,1,2.36-2.92,5.74,5.74,0,0,1,3.36-1,6.3,6.3,0,0,1,5.14,2.2,9.51,9.51,0,0,1,1.83,6.24v12.57h-4.77Z"/><path class="cls-3" d="M466.18,169.72l-2.08-1.08a7.33,7.33,0,0,1-3.17-3.16,10.72,10.72,0,0,1-1.1-5V158.1a12,12,0,0,1,1.05-5.24,7.45,7.45,0,0,1,3.05-3.32,9.73,9.73,0,0,1,4.82-1.13,7.7,7.7,0,0,1,4.54,1.32,8.27,8.27,0,0,1,2.88,3.84,16.6,16.6,0,0,1,1,6.07V161H463.08v-3.49h9.64l0-.22a5.92,5.92,0,0,0-1.21-3.38,3.43,3.43,0,0,0-2.74-1.19,4.22,4.22,0,0,0-3.33,1.34,5.62,5.62,0,0,0-1.18,3.82v2.64a4.44,4.44,0,0,0,4.87,4.89,6.35,6.35,0,0,0,2.33-.45,7.1,7.1,0,0,0,2.06-1.25l3.12,2.92a11.71,11.71,0,0,1-3.55,2.28,10.31,10.31,0,0,1-4,.81Z"/><path class="cls-3" d="M489.24,163.33a1.66,1.66,0,0,0,.38,1.17,1.4,1.4,0,0,0,1.08.41h1.41v4.57h-2.59A4.79,4.79,0,0,1,485.8,168a5.73,5.73,0,0,1-1.33-4V140.4h4.77Z"/><path class="cls-3" d="M516.73,157.9a4.72,4.72,0,0,0-1.25,3.5,3.62,3.62,0,0,0,1.34,3,5.94,5.94,0,0,0,3.79,1.07,6.33,6.33,0,0,0,4-1.31,8,8,0,0,0,2.55-3.77,17.7,17.7,0,0,0,.86-5.88h4.57a20.22,20.22,0,0,1-1.5,8.18,11.36,11.36,0,0,1-4.4,5.22,12.9,12.9,0,0,1-7,1.81,10.57,10.57,0,0,1-4.74-1,6.82,6.82,0,0,1-3-2.84,9.18,9.18,0,0,1-1-4.5,7.92,7.92,0,0,1,2-5.69,8.59,8.59,0,0,1,5.66-2.48l1.68,3.44A4.86,4.86,0,0,0,516.73,157.9Zm1.43,0a18.5,18.5,0,0,1-2.4-3.06,13.51,13.51,0,0,1-1.49-3.24,11.73,11.73,0,0,1-.51-3.43,7.27,7.27,0,0,1,8-8,8.1,8.1,0,0,1,5.87,2,7.55,7.55,0,0,1,2.07,5.68v.6h-4.77v-.6a4.12,4.12,0,0,0-.83-2.75,2.92,2.92,0,0,0-2.34-1,3.13,3.13,0,0,0-2.53,1.05,4.48,4.48,0,0,0-.89,3,7.12,7.12,0,0,0,.45,2.38,12.68,12.68,0,0,0,1.31,2.6,18.89,18.89,0,0,0,2.08,2.66l12.61,13.63h-5.67Z"/><path class="cls-3" d="M553.8,140.4h4.77v29H553.8Zm2.75,24.45h6.77a6.55,6.55,0,0,0,4.58-1.48,5.38,5.38,0,0,0,1.63-4.19v-8.54a5.38,5.38,0,0,0-1.63-4.19,6.55,6.55,0,0,0-4.58-1.48h-6.77V140.4h6.65a13.94,13.94,0,0,1,6.08,1.22,8.59,8.59,0,0,1,3.84,3.55,11.3,11.3,0,0,1,1.31,5.63V159a11.32,11.32,0,0,1-1.29,5.55,8.69,8.69,0,0,1-3.82,3.59,13.66,13.66,0,0,1-6.14,1.26h-6.63Z"/><path class="cls-3" d="M582.21,140.4H587v4.77h-4.75Zm0,8.31H587v20.71h-4.75Z"/><path class="cls-3" d="M597.37,168.73a6.45,6.45,0,0,1-2.41-3,12,12,0,0,1-.83-4.7v-3.95a12.16,12.16,0,0,1,.82-4.72,6.49,6.49,0,0,1,2.38-3,6.77,6.77,0,0,1,3.77-1,5.61,5.61,0,0,1,3.2,1,7,7,0,0,1,2.32,2.76l-.41,4.41a4.52,4.52,0,0,0-.42-2,2.88,2.88,0,0,0-1.22-1.27,3.89,3.89,0,0,0-1.94-.44,3.4,3.4,0,0,0-2.75,1.15,4.9,4.9,0,0,0-1,3.24v3.91a4.71,4.71,0,0,0,1,3.18,3.45,3.45,0,0,0,2.75,1.13,3.89,3.89,0,0,0,1.94-.45,3,3,0,0,0,1.22-1.29,4.45,4.45,0,0,0,.42-2l.27,4.55a5.63,5.63,0,0,1-2,2.6,5.47,5.47,0,0,1-3.3,1A6.87,6.87,0,0,1,597.37,168.73Zm2.11,9.11-1.9-.87a6.92,6.92,0,0,1-3-2.44l3.21-2.93a5.09,5.09,0,0,0,4,1.93,4.52,4.52,0,0,0,3.22-1.11,4.08,4.08,0,0,0,1.18-3.12V148.71H611V168.8a10.44,10.44,0,0,1-1.06,4.89,7.06,7.06,0,0,1-3.12,3.09,10.51,10.51,0,0,1-4.92,1.06Z"/><path class="cls-3" d="M618.75,140.4h4.75v4.77h-4.75Zm0,8.31h4.75v20.71h-4.75Z"/><path class="cls-3" d="M629.67,148.71h9.74v4.17h-9.74ZM633,168.13a6,6,0,0,1-1.22-4.1V142.68h4.77v20.69a1.94,1.94,0,0,0,.3,1.17,1,1,0,0,0,.88.41h1.65v4.57h-2.55A4.82,4.82,0,0,1,633,168.13Z"/><path class="cls-3" d="M647.51,168.13a6.1,6.1,0,0,1-1.78-4.82,5.73,5.73,0,0,1,1.8-4.61,8.12,8.12,0,0,1,5.39-1.53h5.54l.28,3.71h-5.81a3.21,3.21,0,0,0-2.12.6,2.27,2.27,0,0,0-.71,1.83,2.18,2.18,0,0,0,.92,1.93,4.93,4.93,0,0,0,2.77.63,8.75,8.75,0,0,0,3.39-.5,1.64,1.64,0,0,0,1.1-1.56l.42,3a3.42,3.42,0,0,1-1.19,1.63,5.71,5.71,0,0,1-2,1,9.84,9.84,0,0,1-2.62.33A7.78,7.78,0,0,1,647.51,168.13Zm10.77-11.84a3.5,3.5,0,0,0-1-2.7,4.12,4.12,0,0,0-2.9-1A7.27,7.27,0,0,0,652,153a7.14,7.14,0,0,0-2.08,1l-3.17-2.67a8,8,0,0,1,3.19-2.21,11.87,11.87,0,0,1,4.39-.78,10.33,10.33,0,0,1,4.51.9,6.51,6.51,0,0,1,2.87,2.64,8.34,8.34,0,0,1,1,4.16v13.31h-4.41Z"/><path class="cls-3" d="M675.38,163.33a1.66,1.66,0,0,0,.37,1.17,1.43,1.43,0,0,0,1.08.41h1.42v4.57h-2.59a4.83,4.83,0,0,1-3.73-1.44,5.78,5.78,0,0,1-1.32-4V140.4h4.77Z"/></g></g></svg>